<svg xmlns="http://www.w3.org/2000/svg" version="1.1" xmlns:xlink="http://www.w3.org/1999/xlink" xmlns:svgjs="http://svgjs.dev/svgjs" width="2000" height="1247" viewBox="0 0 2000 1247"><g transform="matrix(1,0,0,1,-1.2121212121212466,0.504858299595071)"><svg viewBox="0 0 396 247" data-background-color="#ffffff" preserveAspectRatio="xMidYMid meet" height="1247" width="2000" xmlns="http://www.w3.org/2000/svg" xmlns:xlink="http://www.w3.org/1999/xlink"><g id="tight-bounds" transform="matrix(1,0,0,1,0.2400000000000091,-0.09999999999999432)"><svg viewBox="0 0 395.52 247.2" height="247.2" width="395.52"><g><svg></svg></g><g><svg viewBox="0 0 395.52 247.2" height="247.2" width="395.52"><g transform="matrix(1,0,0,1,100.28204003457084,47.215199999999996)"><svg viewBox="0 0 194.9559199308583 152.7696" height="152.7696" width="194.9559199308583"><g><svg viewBox="0 0 194.9559199308583 152.7696" height="152.7696" width="194.9559199308583"><g><svg viewBox="0 0 244.43135999999998 191.5390982120437" height="152.7696" width="194.9559199308583"><g transform="matrix(1,0,0,1,0,118.37884686256277)"><svg viewBox="0 0 244.43135999999998 73.16025134948096" height="73.16025134948096" width="244.43135999999998"><g id="textblocktransform"><svg viewBox="0 0 244.43135999999998 73.16025134948096" height="73.16025134948096" width="244.43135999999998" id="textblock"><g><svg viewBox="0 0 244.43135999999998 73.16025134948096" height="73.16025134948096" width="244.43135999999998"><g transform="matrix(1,0,0,1,0,0)"><svg width="244.43135999999998" viewBox="4.37 -31.38 132.85999999999999 39.769999999999996" height="73.16025134948096" data-palette-color="#d2d6dc"><path d="M23.22 0L6.32 0Q5.63 0 5.17-0.46L5.17-0.46Q4.37-1.15 4.37-1.9L4.37-1.9 4.37-29.43Q4.37-30.52 5.52-31.15L5.52-31.15Q5.86-31.26 6.21-31.38L6.21-31.38 22.59-31.38Q23.45-31.38 23.85-30.86 24.25-30.34 24.25-29.74 24.25-29.14 23.79-28.62 23.33-28.1 22.59-28.1L22.59-28.1 8.16-28.1 8.16-17.7 21.9-17.7Q22.76-17.7 23.16-17.21 23.56-16.72 23.56-16.09L23.56-16.09Q23.56-15.52 23.1-15.06 22.64-14.6 21.9-14.6L21.9-14.6 8.16-14.6 8.16-3.22 23.22-3.22Q24.02-3.22 24.43-2.7 24.83-2.18 24.83-1.55 24.83-0.92 24.4-0.46 23.97 0 23.22 0L23.22 0ZM38.27-10L29.71-10Q29.02-10 28.59-10.46 28.16-10.92 28.16-11.58 28.16-12.24 28.62-12.67 29.08-13.1 29.71-13.1L29.71-13.1 38.27-13.1Q38.96-13.1 39.42-12.67 39.88-12.24 39.88-11.58 39.88-10.92 39.45-10.46 39.02-10 38.27-10L38.27-10ZM51.66-19.54L51.66-19.54Q46.66-19.54 46.78-16.38L46.78-16.38Q46.78-14.37 49.65-13.62L49.65-13.62Q50.63-13.33 51.75-13.1 52.87-12.87 54.19-12.56 55.51-12.24 56.89-11.72L56.89-11.72Q58.85-11.15 59.91-9.8 60.97-8.45 60.97-6.55L60.97-6.55Q60.97-3.1 58.04-1.21L58.04-1.21Q55.4 0.52 51.37 0.46L51.37 0.46Q48.39 0.46 45.51-0.57L45.51-0.57Q44.36-1.03 43.67-1.67 42.98-2.3 42.98-2.87 42.98-3.45 43.36-3.79 43.73-4.14 44.25-4.14 44.77-4.14 45.43-3.85 46.09-3.56 47.12-3.22L47.12-3.22Q49.77-2.24 51.37-2.24 52.98-2.24 53.96-2.44 54.94-2.64 55.74-3.1L55.74-3.1Q57.47-4.25 57.47-6.09L57.47-6.09Q57.47-7.41 56.63-8.13 55.8-8.85 54.51-9.25 53.21-9.66 51.95-9.94 50.68-10.23 49.42-10.52 48.16-10.8 47.01-11.21 45.86-11.61 45.05-12.3L45.05-12.3Q43.1-13.68 43.1-16.21L43.1-16.21Q43.1-19.43 45.8-20.86L45.8-20.86Q48.04-22.24 51.72-22.24L51.72-22.24Q55.45-22.24 57.7-21.15L57.7-21.15Q59.59-20.17 59.59-18.97L59.59-18.97Q59.59-18.51 59.22-18.22 58.85-17.93 58.39-17.93L58.39-17.93Q57.52-17.93 57.09-18.22 56.66-18.51 56.14-18.79 55.63-19.08 54.94-19.2L54.94-19.2Q53.67-19.54 51.66-19.54ZM81.43-1.61L81.43-14.14Q81.43-16.78 79.94-18.28L79.94-18.28Q78.61-19.54 76.86-19.54 75.11-19.54 73.9-19.14 72.69-18.74 71.77-17.82L71.77-17.82Q69.82-15.98 69.82-12.59L69.82-12.59 69.82-1.61Q69.82-0.8 69.25-0.4 68.67 0 67.98 0L67.98 0Q67.29 0 66.83-0.43 66.37-0.86 66.37-1.61L66.37-1.61 66.37-29.66Q66.37-30.46 66.95-30.86 67.52-31.26 68.1-31.26L68.1-31.26Q68.79-31.26 69.3-30.89 69.82-30.52 69.82-29.66L69.82-29.66 69.82-18.1Q70.62-20.11 72.81-21.21L72.81-21.21Q74.82-22.24 76.8-22.24 78.79-22.24 80.16-21.75 81.54-21.26 82.69-20.34L82.69-20.34Q84.99-18.16 84.99-13.91L84.99-13.91 84.99-1.61Q84.99-0.8 84.39-0.4 83.79 0 83.15 0L83.15 0Q82.46 0 81.95-0.43 81.43-0.86 81.43-1.61L81.43-1.61ZM90.16-10.86L90.16-10.86Q90.16-12.93 90.82-15 91.48-17.07 92.86-18.74L92.86-18.74Q95.74-22.24 101.02-22.24 106.31-22.24 109.19-18.74L109.19-18.74Q111.89-15.4 111.89-10.92L111.89-10.92Q111.89-6.38 109.19-3.1L109.19-3.1Q106.31 0.46 101.02 0.46 95.74 0.46 92.86-3.1L92.86-3.1Q90.16-6.32 90.16-10.86ZM93.9-10.86L93.9-10.86Q93.9-9.48 94.27-7.93 94.65-6.38 95.62-5.06L95.62-5.06Q97.58-2.24 101.02-2.24L101.02-2.24Q104.65-2.24 106.43-5.06L106.43-5.06Q108.09-7.7 108.09-10.92L108.09-10.92Q108.09-14.25 106.43-16.67L106.43-16.67Q104.59-19.54 101.02-19.54L101.02-19.54Q97.58-19.54 95.62-16.67L95.62-16.67Q93.9-14.31 93.9-10.86ZM120.22-18.1L120.22-18.1Q122.46-22.24 128.03-22.24L128.03-22.24Q132.63-22.24 135.04-18.74L135.04-18.74Q137.23-15.52 137.23-10.8L137.23-10.8Q137.23-5.98 134.93-2.93L134.93-2.93Q132.46 0.52 127.98 0.46L127.98 0.46Q124.18 0.46 121.77-1.84L121.77-1.84Q120.91-2.59 120.22-3.62L120.22-3.62 120.22 6.72Q120.22 7.59 119.64 7.99 119.07 8.39 118.49 8.39L118.49 8.39Q117.8 8.39 117.23 7.93 116.65 7.47 116.65 6.72L116.65 6.72 116.65-20.17Q116.65-21.03 117.17-21.44 117.69-21.84 118.67-21.84L118.67-21.84Q120.56-21.84 120.22-18.1ZM121.63-17.01Q120.79-15.86 120.5-14.25 120.22-12.64 120.22-10.89 120.22-9.14 120.62-7.61 121.02-6.09 121.83-4.83L121.83-4.83Q123.67-2.18 127.11-2.24L127.11-2.24Q130.45-2.24 132.17-5L132.17-5Q133.49-7.24 133.49-10.92L133.49-10.92Q133.49-16.72 130.22-18.74L130.22-18.74Q129.01-19.48 127.09-19.51 125.16-19.54 123.81-18.85 122.46-18.16 121.63-17.01Z" opacity="1" transform="matrix(1,0,0,1,0,0)" fill="#d2d6dc" class="wordmark-text-0" data-fill-palette-color="primary" id="text-0"></path></svg></g></svg></g></svg></g></svg></g><g transform="matrix(1,0,0,1,64.4799245325426,0)"><svg viewBox="0 0 115.47151093491479 101.1074673649827" height="101.1074673649827" width="115.47151093491479"><g><svg xmlns="http://www.w3.org/2000/svg" xmlns:xlink="http://www.w3.org/1999/xlink" version="1.1" x="0" y="0" viewBox="7.279999999999999 10.020000000000001 85.43803893195712 74.81" enable-background="new 0 0 100 100" xml:space="preserve" height="101.1074673649827" width="115.47151093491479" class="icon-icon-0" data-fill-palette-color="accent" id="icon-0"><path d="M57.33 82.53v0.64h14v-0.64H57.33zM92.42 32.16L78.79 10.71c-0.13-0.41-0.521-0.69-0.96-0.69H22.17c-0.44 0-0.8 0.28-0.93 0.71L7.72 32.1c-0.2 0.13-0.44 1.88-0.44 1.88 0 8.37 8.78 3.9 12.25 3.9 0.6 0 0.73 0.95 0.73 4.39l0.01-7.31 0.06 25.89c0.28 10 1.19 3 4.17 2.99-0.62-1.33 0.01-15.78-0.07-17.31H24.4v-9.27c0.83 1.45 2.68 2.64 4.7 2.64h0.01c0.65 0 10.968 0 11.64 0 1.75 0 3.26-2.07 4.01-3.25 0.75 1.18 1.89 2.29 3.27 2.85 0.62 0.26 1.28 0.4 1.98 0.4 0.7 0 1.36-0.14 1.98-0.4 1.39-0.56 2.539-1.66 3.27-2.85 0.75 1.18 1.615 3.25 3.865 3.25 0.672 0 10.945-0.05 11.375-0.02 0.01 0 0.01 0 0.01 0 0.131 0.02 0.25 0.02 0.381 0.02 2.021 0 3.909-1.19 4.729-2.64v9.271h-0.149c-0.08 1.489 1.561 2.92 0.979 4.22 2.64-0.01 2.46 9.99 3.05 9.99h0.109l0.131-18.47c0-2.94 1.148-4.37 1.74-4.37 3.459 0 11.238 4.45 11.238-3.92C92.721 33.98 92.55 32.27 92.42 32.16zM12.8 32.88l11.24-19.21h4.73l-7.83 19.21H12.8zM40.94 32.88H25.8l7.24-19.21h9.73L40.94 32.88zM45.8 32.88l1.24-19.21h5.729l1.17 19.21H45.8zM58.8 32.88l-1.76-19.21h9.729l7.17 19.21H58.8zM78.8 32.88l-7.76-19.21h4.729l11.17 19.21H78.8zM57.33 83.17h14v-0.64h-14V83.17z" fill="#97978d" data-fill-palette-color="accent"></path><path d="M30.93 39.56" fill="#97978d" data-fill-palette-color="accent"></path><path d="M50.01 39.9c-0.7 0-1.36-0.14-1.98-0.4h3.96C51.37 39.76 50.71 39.9 50.01 39.9z" fill="#97978d" data-fill-palette-color="accent"></path><path d="M79.5 46.5v26.33c0 6.63-5.37 12-12 12H32.17c-6.63 0-12-4.331-12-12V36.5c0 9.48 0.03 8.96 0.1 8.46 0.39-3.04 0.91 19.28 3.13 17.39l1-15.819 0.03 10c0.08 1.528 0.45 12.979 1.07 14.31 1.89 4.13 6.06 6.99 10.9 6.99h27.1c4.87 0 9.07-2.9 10.95-7.08 0.579-1.3 0.938-2.73 1.021-4.22l0.149-20v-3.87C78.01 44.86 79.5 43 79.5 46.5z" fill="#97978d" data-fill-palette-color="accent"></path><path d="M57.125 77.232c0 3.279-2.658 5.938-5.938 5.938l0 0c-3.279 0-5.938-2.658-5.938-5.938v-10.13c0-3.279 2.658-5.938 5.938-5.938l0 0c3.279 0 5.938 2.658 5.938 5.938V77.232z" fill="#97978d" data-fill-palette-color="accent"></path><path d="M71.75 46.625c0 1.174-0.951 2.125-2.125 2.125h-39.25c-1.174 0-2.125-0.951-2.125-2.125l0 0c0-1.174 0.951-2.125 2.125-2.125h39.25C70.799 44.5 71.75 45.451 71.75 46.625L71.75 46.625z" fill="#97978d" data-fill-palette-color="accent"></path><path d="M71.75 53.625c0 1.174-0.951 2.125-2.125 2.125h-39.25c-1.174 0-2.125-0.951-2.125-2.125l0 0c0-1.174 0.951-2.125 2.125-2.125h39.25C70.799 51.5 71.75 52.451 71.75 53.625L71.75 53.625z" fill="#97978d" data-fill-palette-color="accent"></path></svg></g></svg></g><g></g></svg></g></svg></g></svg></g><g><path d="M160.705 33.44A97.478 97.478 0 0 1 234.815 33.44L229.553 33.44A92.216 92.216 0 0 0 165.967 33.44L160.705 33.44M160.705 213.76A97.478 97.478 0 0 0 234.815 213.76L229.553 213.76A92.216 92.216 0 0 1 165.967 213.76L160.705 213.76" fill="#d2d6dc" stroke="transparent" data-fill-palette-color="tertiary"></path></g></svg></g><defs></defs></svg><rect width="395.52" height="247.2" fill="none" stroke="none" visibility="hidden"></rect></g></svg></g></svg>